<?xml version="1.0" encoding="utf-8"?>
<!-- Generator: Adobe Illustrator 27.5.0, SVG Export Plug-In . SVG Version: 6.00 Build 0)  -->
<svg version="1.1" id="Ebene_1" xmlns="http://www.w3.org/2000/svg" xmlns:xlink="http://www.w3.org/1999/xlink" x="0px" y="0px"
	 viewBox="0 0 440.7 53.7" style="enable-background:new 0 0 440.7 53.7;" xml:space="preserve">
<style type="text/css">
	.st0{fill:#E6320F;}
</style>
<g>
	<path d="M431.6,46.1c0,0,1.6,2.3,4.8,2.3c2.1,0,4.4-1.1,4.4-3.2c0-2.3-1.8-3-3.9-3.5c-1.8-0.4-2.7-0.8-2.7-1.7
		c0-0.7,0.7-1.4,2.1-1.4c1.7,0,2.8,1.2,2.8,1.2l1.3-1.4c0,0-1.5-1.7-4.1-1.7c-2.5,0-4.1,1.6-4.1,3.2c0,2.1,1.7,3,4.1,3.5
		c1.7,0.3,2.5,0.8,2.5,1.8c0,0.9-1.3,1.4-2.4,1.4c-2.2,0-3.4-1.8-3.4-1.8L431.6,46.1z M419.6,41.7c0.1-1.2,1.1-3,3.5-3
		c2.2,0,3.4,1.8,3.4,3H419.6z M423.2,36.8c-3.3,0-5.5,2.6-5.5,5.8c0,3.3,2.4,5.8,5.8,5.8c2.9,0,4.6-2.2,4.6-2.2l-1.3-1.3
		c0,0-1.1,1.6-3.3,1.6c-2.1,0-3.7-1.6-3.8-3.2h9c0-0.3,0-0.4,0-0.7C428.6,39.1,426.3,36.8,423.2,36.8 M411.4,44.7
		c0,0-1.1,1.9-3.3,1.9c-2.3,0-3.7-1.8-3.7-4s1.5-4,3.7-4c2.2,0,3.3,1.9,3.3,1.9V44.7z M407.8,36.8c-3,0-5.4,2.6-5.4,5.8
		s2.4,5.8,5.4,5.8c2.7,0,3.7-1.9,3.7-1.9v1.6h1.9V30h-2v8.4C411.4,38.4,410.3,36.8,407.8,36.8 M394.6,36.8c-2.4,0-3.4,1.8-3.4,1.8
		v-1.6h-1.9v11.1h2v-7.6c0,0,1-1.9,2.8-1.9c1.5,0,2.7,0.8,2.7,2.7v6.8h2V41C398.7,38.3,396.8,36.8,394.6,36.8 M379.5,48.4
		c2.4,0,3.4-2,3.4-2v1.7h1.9V37.1h-2v7.7c0,0-0.9,1.8-2.8,1.8c-1.5,0-2.7-0.8-2.7-2.7v-6.8h-2v7.1C375.3,46.9,377.3,48.4,379.5,48.4
		 M362.8,38.6v-5.3h2.7c1.9,0,3,1,3,2.7s-1.1,2.7-3,2.7L362.8,38.6L362.8,38.6z M366,46.2h-3.2v-5.8h3.2c2.4,0,3.5,1.3,3.5,2.9
		S368.4,46.2,366,46.2 M360.8,48.2h5.3c3.3,0,5.5-1.9,5.5-4.8c0-3.3-2.6-4.1-2.8-4.1c0.2,0,1.9-1,1.9-3.3c0-2.8-1.9-4.6-5.4-4.6
		h-4.4V48.2z M339.1,46.1c0,0,1.6,2.3,4.8,2.3c2.1,0,4.4-1.1,4.4-3.2c0-2.3-1.8-3-3.9-3.5c-1.8-0.4-2.7-0.8-2.7-1.7
		c0-0.7,0.7-1.4,2.1-1.4c1.7,0,2.8,1.2,2.8,1.2l1.3-1.4c0,0-1.5-1.7-4.1-1.7c-2.5,0-4.1,1.6-4.1,3.2c0,2.1,1.7,3,4.1,3.5
		c1.7,0.3,2.5,0.8,2.5,1.8c0,0.9-1.3,1.4-2.4,1.4c-2.2,0-3.4-1.8-3.4-1.8L339.1,46.1z M327.2,41.7c0.1-1.2,1.1-3,3.5-3
		c2.2,0,3.4,1.8,3.4,3H327.2z M330.7,36.8c-3.3,0-5.5,2.6-5.5,5.8c0,3.3,2.4,5.8,5.8,5.8c2.9,0,4.6-2.2,4.6-2.2l-1.3-1.3
		c0,0-1.1,1.6-3.3,1.6c-2.1,0-3.7-1.6-3.8-3.2h9c0-0.3,0-0.4,0-0.7C336.1,39.1,333.8,36.8,330.7,36.8 M319,44.7c0,0-1.1,1.9-3.3,1.9
		c-2.3,0-3.7-1.8-3.7-4s1.5-4,3.7-4c2.2,0,3.3,1.9,3.3,1.9V44.7z M315.4,36.8c-3,0-5.4,2.6-5.4,5.8s2.4,5.8,5.4,5.8
		c2.7,0,3.7-1.9,3.7-1.9v1.6h1.9V30h-2v8.4C319,38.4,317.8,36.8,315.4,36.8 M294.3,36.8c-2.4,0-3.3,2.1-3.3,2.1s-0.7-2.1-3.5-2.1
		c-2.3,0-3.1,1.9-3.1,1.9v-1.6h-1.9v11.1h2v-7.7c0,0,0.7-1.8,2.4-1.8c1.4,0,2.4,0.9,2.4,2.7v6.8h2v-7.7c0,0,0.7-1.8,2.4-1.8
		c1.4,0,2.4,0.9,2.4,2.7v6.8h2V41C298.1,38.3,296.6,36.8,294.3,36.8 M277.9,36.8c-2.1,0-3.1,2-3.1,2v-1.7h-1.9v11.1h2v-7.6
		c0,0,0.8-1.9,2.5-1.9c0.8,0,1.3,0.2,1.3,0.2l0.7-1.8C279.5,37.1,278.8,36.8,277.9,36.8 M263.5,46.6c-2.2,0-3.7-1.8-3.7-4
		s1.5-4,3.7-4s3.7,1.8,3.7,4S265.7,46.6,263.5,46.6 M263.5,36.8c-3.3,0-5.7,2.6-5.7,5.8s2.5,5.8,5.7,5.8s5.7-2.6,5.7-5.8
		S266.8,36.8,263.5,36.8 M248.1,38.9h2.3v9.3h2v-9.3h2.9v-1.8h-2.9v-3.7c0-1.1,0.6-1.8,1.7-1.8c0.6,0,1.3,0.4,1.3,0.4l0.7-1.7
		c-1-0.5-1.7-0.7-2.3-0.7c-1.6,0-3.4,1.2-3.4,3.5V37h-2.3L248.1,38.9L248.1,38.9z M237.7,38.9h2.2V45c0,2.5,1.8,3.5,3.3,3.5
		c0.6,0,1.3-0.1,2.3-0.7l-0.7-1.7c0,0-0.6,0.5-1.3,0.5c-1.1,0-1.6-0.6-1.6-1.7v-6h3.5v-1.8h-3.5v-3.4h-2v3.4h-2.2L237.7,38.9
		L237.7,38.9z M227.3,38.9h2.2V45c0,2.5,1.8,3.5,3.3,3.5c0.6,0,1.3-0.1,2.3-0.7l-0.7-1.7c0,0-0.6,0.5-1.3,0.5
		c-1.1,0-1.6-0.6-1.6-1.7v-6h3.5v-1.8h-3.5v-3.4h-2v3.4h-2.2L227.3,38.9L227.3,38.9z M218.5,46.7c-1.2,0-2.5-0.6-2.5-2
		c0-1.2,1.1-2,2.8-2c1.8,0,2.9,0.8,2.9,0.8V45C221.7,45,220.5,46.7,218.5,46.7 M218.9,36.8c-2.4,0-4.1,1.1-4.1,1.1l0.8,1.7
		c0,0,1.6-0.9,3.3-0.9c0.9,0,2.8,0.3,2.8,2.6v0.6c0,0-1.3-0.9-3.3-0.9c-2.5,0-4.4,1.5-4.4,3.7c0,2.4,2.1,3.8,4.1,3.8
		c2.5,0,3.8-1.9,3.8-1.9v1.6h1.9v-7.3C223.7,38.8,222.2,36.8,218.9,36.8 M207.6,48.2h2V30h-2V48.2z M194.4,40.5c0,0,1.1-1.9,3.3-1.9
		c2.3,0,3.7,1.8,3.7,4s-1.4,4-3.7,4c-2.2,0-3.3-1.9-3.3-1.9V40.5z M192.4,37.1v16.6h2v-6.9c0.4,0.5,1.5,1.7,3.6,1.7
		c3,0,5.4-2.6,5.4-5.8s-2.4-5.8-5.4-5.8c-2.6,0-3.7,1.9-3.7,1.9v-1.6H192.4z M179.3,46.1c0,0,1.6,2.3,4.8,2.3c2.1,0,4.4-1.1,4.4-3.2
		c0-2.3-1.8-3-3.9-3.5c-1.8-0.4-2.7-0.8-2.7-1.7c0-0.7,0.7-1.4,2.1-1.4c1.7,0,2.8,1.2,2.8,1.2l1.3-1.4c0,0-1.5-1.7-4.1-1.7
		c-2.5,0-4.1,1.6-4.1,3.2c0,2.1,1.7,3,4.1,3.5c1.7,0.3,2.5,0.8,2.5,1.8c0,0.9-1.3,1.4-2.4,1.4c-2.2,0-3.4-1.8-3.4-1.8L179.3,46.1z
		 M171.4,36.8c-2.4,0-3.4,1.8-3.4,1.8v-1.6h-1.9v11.1h2v-7.6c0,0,1-1.9,2.8-1.9c1.5,0,2.7,0.8,2.7,2.7v6.8h2V41
		C175.5,38.3,173.6,36.8,171.4,36.8 M156.6,46.6c-2.2,0-3.7-1.8-3.7-4s1.5-4,3.7-4c2.2,0,3.7,1.8,3.7,4S158.9,46.6,156.6,46.6
		 M156.6,36.8c-3.3,0-5.7,2.6-5.7,5.8s2.4,5.8,5.7,5.8c3.3,0,5.7-2.6,5.7-5.8S159.9,36.8,156.6,36.8 M144.4,33.5
		c0,0.7,0.6,1.4,1.4,1.4s1.4-0.6,1.4-1.4c0-0.7-0.6-1.4-1.4-1.4S144.4,32.8,144.4,33.5 M144.8,48.2h2V37.1h-2V48.2z M133,38.9h2.2
		V45c0,2.5,1.8,3.5,3.3,3.5c0.6,0,1.3-0.1,2.3-0.7l-0.7-1.7c0,0-0.6,0.5-1.3,0.5c-1.1,0-1.6-0.6-1.6-1.7v-6h3.5v-1.8h-3.5v-3.4h-2
		v3.4H133L133,38.9L133,38.9z M124.3,46.7c-1.2,0-2.5-0.6-2.5-2c0-1.2,1.1-2,2.8-2c1.8,0,2.9,0.8,2.9,0.8V45
		C127.4,45,126.2,46.7,124.3,46.7 M124.6,36.8c-2.4,0-4.1,1.1-4.1,1.1l0.8,1.7c0,0,1.6-0.9,3.3-0.9c0.9,0,2.8,0.3,2.8,2.6v0.6
		c0,0-1.3-0.9-3.3-0.9c-2.5,0-4.4,1.5-4.4,3.7c0,2.4,2.1,3.8,4.1,3.8c2.5,0,3.8-1.9,3.8-1.9v1.6h1.9v-7.3
		C129.5,38.8,127.9,36.8,124.6,36.8 M111.9,36.8c-2.4,0-3.3,2.1-3.3,2.1s-0.7-2.1-3.5-2.1c-2.3,0-3.1,1.9-3.1,1.9v-1.6h-1.9v11.1h2
		v-7.7c0,0,0.7-1.8,2.4-1.8c1.4,0,2.4,0.9,2.4,2.7v6.8h2v-7.7c0,0,0.7-1.8,2.4-1.8c1.4,0,2.4,0.9,2.4,2.7v6.8h2V41
		C115.7,38.3,114.2,36.8,111.9,36.8 M95.5,36.8c-2.1,0-3.1,2-3.1,2v-1.7h-1.9v11.1h2v-7.6c0,0,0.8-1.9,2.5-1.9
		c0.8,0,1.3,0.2,1.3,0.2l0.7-1.8C97.2,37.1,96.5,36.8,95.5,36.8 M81.1,46.6c-2.2,0-3.7-1.8-3.7-4s1.5-4,3.7-4c2.2,0,3.7,1.8,3.7,4
		S83.3,46.6,81.1,46.6 M81.1,36.8c-3.3,0-5.7,2.6-5.7,5.8s2.4,5.8,5.7,5.8s5.7-2.6,5.7-5.8S84.4,36.8,81.1,36.8 M65.7,38.9H68v9.3h2
		v-9.3h2.9v-1.8h-2.9v-3.7c0-1.1,0.6-1.8,1.7-1.8c0.6,0,1.3,0.4,1.3,0.4l0.7-1.7c-1-0.5-1.7-0.7-2.3-0.7c-1.6,0-3.4,1.2-3.4,3.5V37
		h-2.3C65.7,37,65.7,38.9,65.7,38.9z M58.1,36.8c-2.4,0-3.4,1.8-3.4,1.8v-1.6h-1.9v11.1h2v-7.6c0,0,1-1.9,2.8-1.9
		c1.5,0,2.7,0.8,2.7,2.7v6.8h2V41C62.3,38.3,60.3,36.8,58.1,36.8 M45.5,48.2h2V31.4h-2C45.5,31.4,45.5,48.2,45.5,48.2z"/>
	<path d="M438.3,14.6c0,0-1.1,1.9-3.3,1.9c-2.3,0-3.7-1.8-3.7-4s1.5-4,3.7-4s3.3,1.9,3.3,1.9V14.6z M434.7,6.8c-3,0-5.4,2.6-5.4,5.8
		s2.4,5.8,5.4,5.8c2.7,0,3.7-1.9,3.7-1.9v1.6h1.9V0h-2v8.4C438.3,8.4,437.2,6.8,434.7,6.8 M421.5,6.8c-2.4,0-3.4,1.9-3.4,1.9V7.1
		h-1.9v11.1h2v-7.6c0,0,1-1.9,2.8-1.9c1.5,0,2.7,0.8,2.7,2.7v6.8h2V11C425.7,8.3,423.7,6.8,421.5,6.8 M406.5,18.4c2.4,0,3.4-2,3.4-2
		v1.7h1.9V7.1h-2v7.7c0,0-0.9,1.8-2.8,1.8c-1.5,0-2.7-0.8-2.7-2.7V7.1h-2v7.1C402.4,16.9,404.3,18.4,406.5,18.4 M384.2,13.2h6.4
		v-1.9h-6.4V13.2z M372,16.1c0,0,1.6,2.3,4.8,2.3c2.1,0,4.4-1.1,4.4-3.2c0-2.3-1.8-3-3.9-3.5c-1.8-0.4-2.7-0.8-2.7-1.7
		c0-0.7,0.7-1.4,2.1-1.4c1.7,0,2.8,1.2,2.8,1.2l1.3-1.4c0,0-1.5-1.7-4.1-1.7c-2.5,0-4.1,1.6-4.1,3.2c0,2.1,1.7,3,4.1,3.5
		c1.7,0.3,2.5,0.8,2.5,1.8c0,0.9-1.3,1.4-2.4,1.4c-2.2,0-3.4-1.8-3.4-1.8L372,16.1z M366.3,14.7c0,0-1.1,1.9-3.3,1.9
		c-2.3,0-3.7-1.8-3.7-4s1.4-4,3.7-4c2.2,0,3.3,1.9,3.3,1.9V14.7z M366.3,18.3c0,2.5-1.5,3.8-3.8,3.8c-2.3,0-3.6-1.8-3.6-1.8
		l-1.2,1.5c0,0,1.8,2.1,4.9,2.1c3.2,0,5.8-1.9,5.8-5.8V7.1h-1.9v1.6c0,0-1.1-1.9-3.7-1.9c-3,0-5.4,2.6-5.4,5.8s2.4,5.8,5.4,5.8
		c2,0,3.2-1.2,3.6-1.7L366.3,18.3L366.3,18.3z M349.5,6.8c-2.4,0-3.4,1.9-3.4,1.9V7.1h-1.9v11.1h2v-7.6c0,0,1-1.9,2.8-1.9
		c1.5,0,2.7,0.8,2.7,2.7v6.8h2V11C353.7,8.3,351.7,6.8,349.5,6.8 M334.5,18.4c2.4,0,3.4-2,3.4-2v1.7h1.9V7.1h-2v7.7
		c0,0-0.9,1.8-2.8,1.8c-1.5,0-2.7-0.8-2.7-2.7V7.1h-2v7.1C330.3,16.9,332.3,18.4,334.5,18.4 M325.8,6.8c-2.1,0-3.1,2-3.1,2V7.1h-1.9
		v11.1h2v-7.6c0,0,0.8-1.9,2.5-1.9c0.8,0,1.3,0.2,1.3,0.2l0.7-1.8C327.4,7.1,326.7,6.8,325.8,6.8 M311.2,16.7c-1.2,0-2.5-0.6-2.5-2
		c0-1.1,1.1-2,2.8-2c1.8,0,2.9,0.8,2.9,0.8V15C314.4,15,313.2,16.7,311.2,16.7 M311.6,6.8c-2.4,0-4.1,1.1-4.1,1.1l0.8,1.7
		c0,0,1.6-0.9,3.3-0.9c0.9,0,2.8,0.3,2.8,2.6v0.6c0,0-1.3-0.9-3.3-0.9c-2.5,0-4.4,1.5-4.4,3.7c0,2.4,2.1,3.8,4.1,3.8
		c2.5,0,3.8-1.9,3.8-1.9v1.6h1.9v-7.3C316.4,8.8,314.8,6.8,311.6,6.8 M294.6,10.6c0,0,1.1-1.9,3.3-1.9s3.7,1.8,3.7,4s-1.4,4-3.7,4
		c-2.2,0-3.3-1.9-3.3-1.9V10.6z M298.2,6.8c-2.5,0-3.6,1.7-3.6,1.7V0h-2v18.1h1.9v-1.6c0,0,1.1,1.9,3.7,1.9c3,0,5.4-2.6,5.4-5.8
		S301.2,6.8,298.2,6.8 M280.8,8.9h2.2V15c0,2.5,1.8,3.5,3.3,3.5c0.6,0,1.3-0.1,2.3-0.7l-0.7-1.7c0,0-0.6,0.5-1.3,0.5
		c-1.1,0-1.6-0.6-1.6-1.7v-6h3.5V7.1H285V3.7h-2v3.4h-2.2L280.8,8.9L280.8,8.9z M272.1,18.4c2.4,0,3.4-2,3.4-2v1.7h1.9V7.1h-2v7.7
		c0,0-0.9,1.8-2.8,1.8c-1.5,0-2.7-0.8-2.7-2.7V7.1h-2v7.1C267.9,16.9,269.9,18.4,272.1,18.4 M258.3,16.7c-1.2,0-2.5-0.6-2.5-2
		c0-1.1,1.1-2,2.8-2c1.8,0,2.9,0.8,2.9,0.8V15C261.5,15,260.3,16.7,258.3,16.7 M258.7,6.8c-2.4,0-4.1,1.1-4.1,1.1l0.8,1.7
		c0,0,1.6-0.9,3.3-0.9c0.9,0,2.8,0.3,2.8,2.6v0.6c0,0-1.3-0.9-3.3-0.9c-2.5,0-4.4,1.5-4.4,3.7c0,2.4,2.1,3.8,4.1,3.8
		c2.5,0,3.8-1.9,3.8-1.9v1.6h1.9v-7.3C263.5,8.8,261.9,6.8,258.7,6.8 M247.4,18.2h2V0h-2V18.2z M242.4,6.8c-2.1,0-3.1,2-3.1,2V7.1
		h-1.9v11.1h2v-7.6c0,0,0.8-1.9,2.5-1.9c0.8,0,1.3,0.2,1.3,0.2l0.7-1.8C244.1,7.1,243.4,6.8,242.4,6.8 M224.9,11.6
		c0.1-1.1,1.1-3,3.5-3c2.2,0,3.4,1.8,3.4,3H224.9z M228.4,6.8c-3.3,0-5.5,2.6-5.5,5.8c0,3.3,2.4,5.8,5.8,5.8c2.9,0,4.6-2.2,4.6-2.2
		l-1.3-1.3c0,0-1.1,1.6-3.3,1.6c-2.1,0-3.7-1.6-3.8-3.2h8.9c0-0.3,0-0.4,0-0.6C233.8,9.1,231.5,6.8,228.4,6.8 M222.1,1.4H220
		l-4.9,12.3l-4.9-12.3h-2.2l7,17.3L222.1,1.4z M188.9,11.6c0.1-1.1,1.1-3,3.5-3c2.2,0,3.4,1.8,3.4,3H188.9z M192.4,6.8
		c-3.3,0-5.5,2.6-5.5,5.8c0,3.3,2.4,5.8,5.8,5.8c2.9,0,4.6-2.2,4.6-2.2l-1.3-1.3c0,0-1.1,1.6-3.3,1.6c-2.1,0-3.7-1.6-3.8-3.2h8.9
		c0-0.3,0-0.4,0-0.6C197.8,9.1,195.5,6.8,192.4,6.8 M179.1,6.8c-1.9,0-2.9,1.1-3.3,1.6V0h-2v18.1h2v-7.6c0,0,1-1.9,2.8-1.9
		c1.5,0,2.7,0.8,2.7,2.7v6.8h2V11C183.2,8.3,181.3,6.8,179.1,6.8 M168.7,15c0,0-1.1,1.6-3.2,1.6c-2.2,0-3.7-1.8-3.7-4s1.5-4,3.7-4
		c2,0,3.1,1.3,3.1,1.3l1.4-1.2c0,0-1.6-2-4.4-2c-3.3,0-5.7,2.6-5.7,5.8c0,3.3,2.4,5.8,5.7,5.8c2.9,0,4.5-2.1,4.5-2.1L168.7,15z
		 M147.6,16.1c0,0,1.6,2.3,4.8,2.3c2.1,0,4.4-1.1,4.4-3.2c0-2.3-1.8-3-3.9-3.5c-1.8-0.4-2.7-0.8-2.7-1.7c0-0.7,0.7-1.4,2.1-1.4
		c1.7,0,2.8,1.2,2.8,1.2l1.3-1.4c0,0-1.5-1.7-4.1-1.7c-2.5,0-4.1,1.6-4.1,3.2c0,2.1,1.7,3,4.1,3.5c1.7,0.3,2.5,0.8,2.5,1.8
		c0,0.9-1.3,1.4-2.4,1.4c-2.2,0-3.4-1.8-3.4-1.8L147.6,16.1z M141.1,3.5c0,0.7,0.6,1.4,1.4,1.4s1.4-0.6,1.4-1.4
		c0-0.7-0.6-1.4-1.4-1.4S141.1,2.8,141.1,3.5 M141.5,18.2h2V7.1h-2V18.2z M132.6,6.8c-2.4,0-3.4,1.9-3.4,1.9V7.1h-1.9v11.1h2v-7.6
		c0,0,1-1.9,2.8-1.9c1.5,0,2.7,0.8,2.7,2.7v6.8h2V11C136.7,8.3,134.8,6.8,132.6,6.8 M117.9,16.6c-2.2,0-3.7-1.8-3.7-4s1.5-4,3.7-4
		c2.2,0,3.7,1.8,3.7,4S120.2,16.6,117.9,16.6 M117.9,6.8c-3.3,0-5.7,2.6-5.7,5.8s2.4,5.8,5.7,5.8s5.7-2.6,5.7-5.8
		S121.2,6.8,117.9,6.8 M108.8,6.8c-2.1,0-3.1,2-3.1,2V7.1h-1.9v11.1h2v-7.6c0,0,0.8-1.9,2.5-1.9c0.8,0,1.3,0.2,1.3,0.2l0.7-1.8
		C110.4,7.1,109.7,6.8,108.8,6.8 M92.5,8.9h2.2V15c0,2.5,1.8,3.5,3.3,3.5c0.7,0,1.3-0.1,2.3-0.7l-0.7-1.7c0,0-0.7,0.5-1.3,0.5
		c-1.1,0-1.6-0.6-1.6-1.7v-6h3.5V7.1h-3.5V3.7h-2v3.4h-2.2C92.5,7.1,92.5,8.9,92.5,8.9z M87.8,18.2h2.8l-5.6-5.9l5.2-5.2h-2.6
		L82.7,12V0h-2v18.1h2v-5.4L87.8,18.2z M67.7,11.6c0.1-1.1,1.1-3,3.5-3c2.2,0,3.4,1.8,3.4,3H67.7z M71.2,6.8c-3.3,0-5.5,2.6-5.5,5.8
		c0,3.3,2.4,5.8,5.8,5.8c2.9,0,4.6-2.2,4.6-2.2l-1.3-1.3c0,0-1.2,1.6-3.3,1.6c-2.1,0-3.7-1.6-3.8-3.2h8.9c0-0.3,0-0.4,0-0.6
		C76.6,9.1,74.3,6.8,71.2,6.8 M59.6,18.2h2V0h-2V18.2z M47.2,3.3h7.7V1.4h-9.7v16.8H55v-1.9h-7.8v-5.7h7.1V8.6h-7.1V3.3z"/>
</g>
<polygon class="st0" points="26.2,6.8 26.2,1.2 0,1.2 2.6,6.8 "/>
<polygon class="st0" points="7.9,18.2 26.2,18.2 26.2,12.5 5.3,12.5 "/>
</svg>
